HIERARCHY
ROOT Hips
{
  OFFSET -102.467 93.6631 130.069
  CHANNELS 6 Xposition Yposition Zposition Zrotation Xrotation Yrotation
  JOINT LeftUpLeg
  {
    OFFSET 8.64259 1.95398 -2.38835
    CHANNELS 3 Zrotation Xrotation Yrotation
    JOINT LeftLeg
    {
      OFFSET 43.7702 0 0
      CHANNELS 3 Zrotation Xrotation Yrotation
      JOINT LeftFoot
      {
        OFFSET 40.6238 0 0
        CHANNELS 3 Zrotation Xrotation Yrotation
        JOINT LeftToeBase
        {
          OFFSET 12.7242 0 0
          CHANNELS 3 Zrotation Xrotation Yrotation
          End Site
          {
            OFFSET 0 0 0
          }
        }
      }
    }
  }
  JOINT RightUpLeg
  {
    OFFSET -8.2249 1.95398 -2.59336
    CHANNELS 3 Zrotation Xrotation Yrotation
    JOINT RightLeg
    {
      OFFSET 43.5653 0 0
      CHANNELS 3 Zrotation Xrotation Yrotation
      JOINT RightFoot
      {
        OFFSET 40.6238 0 0
        CHANNELS 3 Zrotation Xrotation Yrotation
        JOINT RightToeBase
        {
          OFFSET 12.7242 0 0
          CHANNELS 3 Zrotation Xrotation Yrotation
          End Site
          {
            OFFSET 0 0 0
          }
        }
      }
    }
  }
  JOINT Spine
  {
    OFFSET 0.165834 0.87714 6.61349
    CHANNELS 3 Zrotation Xrotation Yrotation
    JOINT Spine1
    {
      OFFSET 7.38963 1.71661e-005 0
      CHANNELS 3 Zrotation Xrotation Yrotation
      JOINT Spine2
      {
        OFFSET 11.9445 1.14441e-005 0
        CHANNELS 3 Zrotation Xrotation Yrotation
        JOINT Spine3
        {
          OFFSET 14.7254 4.19617e-005 0
          CHANNELS 3 Zrotation Xrotation Yrotation
          JOINT Spine4
          {
            OFFSET 10.9679 0 0
            CHANNELS 3 Zrotation Xrotation Yrotation
            JOINT RightShoulder
            {
              OFFSET 2.46616 -1.6653 3.69651
              CHANNELS 3 Zrotation Xrotation Yrotation
              JOINT RightArm
              {
                OFFSET 13.0012 0 0
                CHANNELS 3 Zrotation Xrotation Yrotation
                JOINT RightForeArm
                {
                  OFFSET 28.7848 1.52588e-005 0
                  CHANNELS 3 Zrotation Xrotation Yrotation
                  JOINT RightHand
                  {
                    OFFSET 26.5688 1.52588e-005 0
                    CHANNELS 3 Zrotation Xrotation Yrotation
                    End Site
                    {
                      OFFSET 0 0 0
                    }
                  }
                }
              }
            }
            JOINT LeftShoulder
            {
              OFFSET 2.38034 -1.29275 -3.7523
              CHANNELS 3 Zrotation Xrotation Yrotation
              JOINT LeftArm
              {
                OFFSET 16.3182 6.10351e-005 0
                CHANNELS 3 Zrotation Xrotation Yrotation
                JOINT LeftForeArm
                {
                  OFFSET 27.0901 0 0
                  CHANNELS 3 Zrotation Xrotation Yrotation
                  JOINT LeftHand
                  {
                    OFFSET 24.5451 1.52588e-005 0
                    CHANNELS 3 Zrotation Xrotation Yrotation
                    End Site
                    {
                      OFFSET 0 0 0
                    }
                  }
                }
              }
            }
            JOINT Neck
            {
              OFFSET 5.0226 -0.0266342 0
              CHANNELS 3 Zrotation Xrotation Yrotation
              JOINT Head
              {
                OFFSET 6.69363 2.86102e-005 0
                CHANNELS 3 Zrotation Xrotation Yrotation
                End Site
                {
                  OFFSET 0 0 0
                }
              }
            }
          }
        }
      }
    }
  }
}
MOTION
Frames:	10
Frame Time:	0.0416667
-323.68 70.3491 330.474 -79.3652 -6.82142 91.3968 -9.47619 14.0555 -77.0169 159.21 -38.2024 -128.007 22.5508 -18.2958 -22.779 29.3343 -25.3551 -133.534 -58.8628 -15.7047 -65.2796 -90.4139 -42.0247 -18.9902 -18.3305 40.37 79.5053 155.53 18.2541 30.6336 0.529453 23.6324 -98.3639 -20.7163 -0.563044 -16.1347 -32.4861 -1.26332 -16.096 -54.2603 4.25197 -15.5886 -34.2477 4.25197 -15.5886 125.054 -12.9326 -22.3355 40.4426 -7.97455 2.8472 -177.864 60.7421 179.994 15.4098 -3.64492 -30.3551 -56.8549 -30.9591 136.538 -58.7032 11.7861 -23.1717 -179.885 66.6537 -179.998 7.4519 -1.91007 -25.3073 -69.7706 -10.9898 -6.30103 17.1703 -17.1731 -9.56085 
-324.091 70.0869 330.982 -79.3452 -6.70814 91.3905 -9.61522 14.2321 -76.9732 159.94 -38.6028 -127.393 21.031 -18.5859 -24.3626 28.2934 -22.0478 -133.617 -59.1344 -15.2334 -64.8392 -90.5656 -40.6531 -18.849 -17.7413 40.263 78.7819 154.945 18.2353 30.7084 0.588316 23.6143 -98.3863 -20.6736 -0.45944 -16.1428 -32.4436 -1.16019 -16.1085 -54.2192 4.35346 -15.5663 -34.2066 4.35347 -15.5663 125.097 -13.0861 -22.4087 40.6335 -8.19272 3.28869 -177.671 60.2089 179.995 15.38 -3.64351 -30.4089 -56.8274 -30.8802 136.63 -58.7134 11.9143 -23.4881 -179.902 66.6139 -179.998 7.38709 -1.98494 -26.2906 -69.7553 -10.6897 -6.68145 17.1805 -17.048 -9.47339 
-325.247 69.3452 332.395 -79.2909 -6.40331 91.3719 -10.0167 14.7654 -76.9039 162.501 -39.8797 -125.513 17.1973 -19.1831 -28.5984 25.9367 -13.9394 -132.829 -59.7773 -13.992 -63.6826 -91.8367 -38.6297 -18.8649 -15.8693 41.2741 77.1913 153.453 17.9231 30.8065 0.754338 23.5636 -98.4468 -20.5537 -0.166918 -16.1611 -32.3241 -0.868661 -16.1392 -54.1045 4.63877 -15.4989 -34.0918 4.63877 -15.4989 125.233 -13.5396 -22.605 41.1658 -8.79706 4.52286 -177.152 58.6945 179.995 15.2906 -3.6373 -30.5056 -56.7511 -30.6607 136.884 -58.7386 12.2762 -24.3832 -179.953 66.5596 -179.998 7.20598 -2.19584 -29.1122 -69.6904 -9.84707 -7.74117 17.1911 -16.6944 -9.24682 
-327.038 68.1728 334.54 -79.215 -5.9576 91.3389 -10.6536 15.6167 -76.8734 168.578 -42.4838 -121.573 12.9337 -19.6386 -34.3662 23.6339 -5.65234 -129.425 -60.609 -12.0379 -62.1661 -94.5121 -38.2813 -19.3207 -12.4747 44.4455 75.0473 151.462 16.903 30.7006 1.01081 23.4846 -98.5351 -20.3675 0.286111 -16.1811 -32.1383 -0.416866 -16.1783 -53.9278 5.07818 -15.3865 -33.9152 5.07819 -15.3865 125.48 -14.2957 -22.878 41.9838 -9.69335 6.39684 -176.422 56.317 179.995 15.118 -3.60294 -30.5419 -56.6332 -30.3371 137.27 -58.7766 12.8274 -25.7842 179.97 66.6484 -179.998 6.9116 -2.51559 -33.5953 -69.5352 -8.56047 -9.3458 17.1623 -16.1506 -8.94473 
-329.335 66.6291 337.236 -79.132 -5.41947 91.2892 -11.482 16.6223 -76.7954 -174.552 -47.6728 -110.441 12.114 -19.9562 -39.6195 24.0036 -5.3858 -121.386 -61.4812 -9.44802 -60.6527 -97.9821 -39.5108 -19.9208 -6.98881 48.8218 71.3272 149.268 15.0277 30.2442 1.34047 23.3814 -98.6407 -20.1252 0.870622 -16.1946 -31.8963 0.166498 -16.2165 -53.7004 5.6415 -15.2292 -33.6877 5.64147 -15.2292 125.861 -15.3611 -23.1743 43.0336 -10.7798 8.75151 -175.614 53.1904 179.995 14.8158 -3.51665 -30.4236 -56.4783 -29.9532 137.76 -58.8297 13.5189 -27.6218 179.875 67.1171 -179.998 6.44254 -2.88407 -39.4805 -69.2481 -6.9378 -11.363 17.0568 -15.4613 -8.62622 
-331.93 64.7826 340.279 -79.0549 -4.84014 91.222 -12.5533 17.4618 -76.2664 -113.887 -45.5711 -67.2859 24.8126 -19.8062 -33.6804 42.9019 -30.2019 -98.3955 -62.2609 -6.29387 -59.4718 -101.33 -41.3647 -20.2266 1.01101 52.714 64.7993 147.042 12.4302 29.4154 1.72574 23.2584 -98.7521 -19.8384 1.55674 -16.1921 -31.6092 0.852154 -16.243 -53.4346 6.29737 -15.0266 -33.422 6.29736 -15.0266 126.395 -16.7327 -23.4446 44.2557 -11.9629 11.4343 -174.791 49.4353 179.923 14.3409 -3.36001 -30.0738 -56.2908 -29.552 138.322 -58.8975 14.3049 -29.8163 179.767 68.2559 -179.998 5.65073 -3.17122 -46.3234 -68.8003 -5.0918 -13.6735 16.8519 -14.6754 -8.33193 
-334.658 62.7264 343.627 -78.9947 -4.28092 91.1408 -14.1232 18.533 -75.9498 -56.2758 -7.16908 -43.603 38.1187 -13.721 -9.05372 106.06 -33.0308 -24.9514 -62.7207 -2.9225 -58.8794 -104.029 -43.1376 -19.9189 10.8616 54.6656 55.6073 144.877 9.38878 28.282 2.14763 23.1224 -98.8568 -19.5228 2.31289 -16.1612 -31.2925 1.60891 -16.2442 -53.147 7.0119 -14.7757 -33.1343 7.01192 -14.7757 127.087 -18.3886 -23.648 45.5752 -13.1651 14.3005 -175.051 45.3648 -178.824 13.6705 -3.12521 -29.4348 -56.0766 -29.1704 138.926 -58.9717 15.1493 -32.2654 179.648 70.3515 -179.997 4.33887 -3.16179 -53.4739 -68.1826 -3.13741 -16.168 16.5439 -13.8445 -8.08279 
-337.514 60.7724 346.994 -78.9584 -3.82305 91.055 -15.5835 19.8778 -76.5072 -37.8173 9.28759 -44.207 38.5984 -11.2153 0.763337 122.991 -23.1484 -6.45611 -62.8488 0.337753 -59.3648 -105.578 -44.6723 -18.829 20.1589 53.9385 46.0419 142.824 6.24441 26.9714 2.58597 22.9832 -98.9397 -19.2003 3.1055 -16.0849 -30.9679 2.40404 -16.2015 -52.8603 7.74799 -14.4694 -32.8476 7.74799 -14.4694 127.931 -20.2842 -23.7571 46.8981 -14.3311 17.2136 -177.317 41.3392 -174.604 12.817 -2.81947 -28.4676 -55.8457 -28.8334 139.539 -59.026 16.0294 -34.8385 179.52 73.5648 -179.997 2.36518 -2.60411 -60.1663 -67.4077 -1.18378 -18.743 16.1425 -13.0158 -7.8869 
-340.225 59.0202 350.076 -78.9471 -3.57433 90.9822 -16.9186 21.1416 -77.3943 -29.7623 14.955 -43.8138 40.0569 -10.749 4.07268 127.366 -21.3122 -3.61681 -62.422 3.24814 -61.1549 -105.827 -45.8405 -16.8341 26.6044 50.7747 38.2955 140.894 3.36036 25.6569 3.02124 22.8553 -98.9839 -18.9013 3.90267 -15.9395 -30.6655 3.20663 -16.0902 -52.6053 8.46814 -14.0943 -32.5927 8.46813 -14.0943 128.902 -22.3559 -23.7634 48.1182 -15.4316 20.0558 -179.201 37.2619 -170.545 11.8421 -2.46584 -27.15 -55.6127 -28.5472 140.13 -59.0038 16.9365 -37.3873 179.373 77.7938 -179.996 -0.221264 -1.36711 -65.7392 -66.4998 0.68163 -21.303 15.6593 -12.2215 -7.7497 
-342.553 57.6055 352.654 -78.9547 -3.67067 90.9489 -18.1383 22.5557 -78.863 -24.2452 18.2486 -41.5749 41.6572 -11.3298 5.85311 130.44 -24.2789 -4.85307 -61.1147 5.32684 -64.3656 -105.085 -46.5306 -13.8584 29.4432 45.9223 33.088 139.064 1.1226 24.5479 3.43619 22.7567 -98.9714 -18.6638 4.67753 -15.6952 -30.4229 3.99115 -15.8792 -52.4207 9.13779 -13.6291 -32.4081 9.13779 -13.6291 129.968 -24.5332 -23.6762 49.1248 -16.459 22.7296 179.481 33.3857 -166.984 10.8579 -2.09689 -25.465 -55.3959 -28.2991 140.672 -58.8137 17.8706 -39.7658 178.555 82.695 -179.371 -3.17408 0.426433 -69.8295 -65.4833 2.39989 -23.7661 15.0983 -11.4738 -7.67713 
